<svg width="704" height="512" viewBox="0 0 704 512" fill="none" xmlns="http://www.w3.org/2000/svg">
<path d="M203.142 254.669L218.928 327.269L278.278 259.751L302.453 281.12C302.453 281.12 218.372 406.282 184.817 398.102C151.262 389.923 160.4 342.442 153.269 291.405C146.137 240.367 203.142 254.669 203.142 254.669Z" fill="white"/>
<path d="M188.057 399.7C186.869 399.701 185.684 399.563 184.527 399.288C158.975 393.045 157.403 365.408 155.517 330.415C154.816 317.904 154.067 304.981 152.206 291.574C150.199 277.223 152.979 266.527 160.498 259.775C175.22 246.562 202.417 253.193 203.553 253.483C203.77 253.544 203.967 253.662 204.124 253.823C204.281 253.984 204.392 254.184 204.448 254.403L219.726 324.583L277.48 258.856C277.697 258.612 278.001 258.464 278.326 258.444C278.643 258.428 278.954 258.532 279.197 258.735L303.372 280.127C303.592 280.32 303.734 280.586 303.77 280.877C303.805 281.167 303.732 281.461 303.565 281.7C300.036 286.758 223.764 399.675 188.057 399.7ZM186.655 254.04C178.363 254.04 168.645 255.589 161.996 261.59C155.348 267.592 152.592 277.756 154.478 291.235C156.364 304.715 157.089 317.71 157.814 330.27C159.748 364.271 161.295 391.109 185.083 396.941C198.307 400.135 222.555 381.138 255.191 341.91C277.722 314.83 297.159 286.589 300.761 281.41L278.351 261.518L219.823 328.14C219.677 328.311 219.487 328.437 219.273 328.505C219.06 328.574 218.832 328.581 218.614 328.527C218.395 328.471 218.196 328.355 218.038 328.193C217.88 328.031 217.77 327.828 217.72 327.608L202.103 255.782C197.027 254.671 191.85 254.087 186.655 254.04Z" fill="#3C4242"/>
<path d="M9.52501 468.96C4.69001 501.678 5.43943 510.681 5.43943 510.681L205.899 506.664L179.524 391.98L25.819 408.46C18.2416 427.985 12.779 448.268 9.52501 468.96Z" fill="#3C4242"/>
<path d="M5.43942 511.891C5.13716 511.898 4.84361 511.789 4.61888 511.587C4.39415 511.384 4.25526 511.103 4.23067 510.802C4.23067 510.415 3.45707 501.267 8.31625 468.791C11.6056 448.001 17.1002 427.623 24.7069 408C24.791 407.798 24.927 407.623 25.1012 407.491C25.2753 407.359 25.4813 407.276 25.6981 407.25L179.379 390.77C179.671 390.733 179.968 390.806 180.209 390.976C180.451 391.147 180.62 391.401 180.684 391.689L207.083 506.397C207.123 506.574 207.122 506.757 207.08 506.934C207.038 507.11 206.956 507.274 206.841 507.414C206.735 507.557 206.596 507.674 206.437 507.754C206.277 507.833 206.101 507.875 205.923 507.874L5.4636 511.891H5.43942ZM10.7096 469.154C6.81739 495.144 6.55148 506.18 6.59983 509.447L204.376 505.502L178.581 393.287L26.6892 409.573C19.3054 428.822 13.9498 448.791 10.7096 469.154Z" fill="#3C4242"/>
<path d="M7.42113 456.691L195.382 435.516C177.879 323.687 168.958 382.808 190.112 278.216L212.401 272.166C202.054 218.127 176.622 194.411 176.622 194.411C151.794 149.665 91.26 175.85 91.26 175.85C91.26 175.85 21.8294 181.416 3.91575 241.48C-7.95417 281.216 12.4253 336.634 14.9637 385.01C15.6648 398.538 10.999 397.981 7.42113 456.691Z" fill="#8A33FD"/>
<path d="M143.043 204.527C136.056 203.462 129.336 202.276 122.107 204.212C111.374 207.14 101.921 213.36 90.8732 215.949C79.0758 218.684 66.2147 218.78 54.1514 219.337C50.6218 219.506 54.4415 223.983 51.3954 222.168C40.6859 215.78 39.8398 201.235 38.8486 190.321C36.2173 165.104 37.0306 139.645 41.2661 114.648C45.3275 92.8678 49.534 72.2252 70.6387 61.0932C86.014 52.9862 107.627 48.1462 124.476 54.1478C141.326 60.1494 155.396 75.5648 161.271 92.6258C167.774 111.502 169.901 130.644 180.828 147.923C185.663 155.546 191.635 162.975 192.916 171.905C194.318 182.674 187.936 193.516 178.774 199.324C169.611 205.132 158.176 206.584 147.346 205.132C145.847 204.962 144.445 204.744 143.043 204.527Z" fill="white"/>
<path d="M52.4112 223.814C51.8219 223.751 51.2572 223.543 50.7673 223.209C39.9611 216.772 38.6798 202.905 37.7612 191.749V190.418C35.1986 161.789 35.9964 136.936 40.1787 114.406C44.095 93.376 48.1564 71.6202 70.1798 60.0042C84.0321 52.7442 106.708 46.4764 124.985 52.9862C141.907 59.012 156.243 74.0402 162.504 92.2144C164.632 98.3612 166.3 104.605 167.919 110.655C171.401 123.553 174.664 135.726 181.941 147.245C182.811 148.649 183.73 150.028 184.648 151.408C188.807 157.675 193.11 164.161 194.077 171.736C195.479 182.384 189.58 193.879 179.402 200.316C168.524 207.213 155.904 207.382 147.25 206.317L142.922 205.688L141.883 205.543C135.331 204.527 129.118 203.583 122.543 205.374C117.575 206.851 112.726 208.703 108.038 210.915C102.601 213.495 96.9357 215.561 91.1154 217.086C80.8343 219.123 70.3855 220.192 59.9055 220.281L54.1518 220.523C54.0008 220.487 53.8435 220.487 53.6925 220.523C53.6501 220.804 53.6501 221.089 53.6925 221.37C53.8134 221.735 53.8228 222.128 53.7194 222.499C53.6161 222.87 53.4047 223.201 53.1123 223.451C52.9159 223.634 52.6735 223.759 52.4112 223.814ZM107.844 52.72C95.0683 53.0096 82.5325 56.2565 71.2194 62.2064C50.2355 73.2658 46.2949 94.4166 42.4753 114.89C38.3172 137.202 37.6403 161.838 40.0578 190.249L40.1787 191.58C41.0973 201.913 42.2094 214.715 51.3233 220.62C51.323 220.04 51.519 219.477 51.8794 219.022C52.1573 218.709 52.5004 218.46 52.8845 218.292C53.2687 218.125 53.6847 218.044 54.1035 218.054L59.8571 217.812C70.1767 217.786 80.4713 216.798 90.6077 214.86C96.2477 213.359 101.735 211.334 106.998 208.81C111.784 206.561 116.729 204.668 121.793 203.147C128.901 201.235 135.356 202.228 142.173 203.147L143.213 203.317C144.615 203.51 146.017 203.728 147.443 203.897C155.735 204.938 167.75 204.793 178.025 198.259C187.404 192.33 192.868 181.779 191.587 172.05C190.668 165.032 186.534 158.789 182.545 152.69C181.627 151.287 180.684 149.883 179.789 148.479C172.319 136.646 168.862 123.699 165.502 111.211C163.882 105.21 162.214 99.1114 160.135 92.9162C154.091 75.4196 140.287 60.9722 124.066 55.1884C118.837 53.4543 113.352 52.6197 107.844 52.72Z" fill="#3C4242"/>
<path d="M151.19 103.976C151.19 103.976 163.664 133.016 159.942 155.764C159.064 162.138 156.348 168.117 152.128 172.97C147.907 177.823 142.364 181.338 136.177 183.085L138.595 222.943C138.595 222.943 140.07 243.319 114.903 241.746C107.622 241.277 100.58 238.957 94.442 235.007C88.3045 231.056 83.274 225.605 79.8256 219.168L72.3555 146.059C72.3555 146.059 99.6007 127.982 95.4909 101.822C95.6602 101.822 130.303 115.979 151.19 103.976Z" fill="white"/>
<path d="M117.78 243.029H115C107.507 242.503 100.268 240.089 93.9573 236.01C87.6466 231.931 82.4692 226.32 78.907 219.7C78.8857 219.564 78.8857 219.425 78.907 219.289L71.437 146.18C71.4234 145.959 71.4675 145.738 71.565 145.538C71.6624 145.339 71.8099 145.168 71.993 145.043C72.2347 144.874 98.5855 127.087 94.5724 102.015C94.5455 101.803 94.574 101.588 94.6552 101.39C94.7364 101.193 94.8675 101.019 95.0356 100.888C95.2038 100.756 95.4032 100.67 95.6144 100.639C95.8256 100.607 96.0414 100.631 96.2405 100.709C96.579 100.709 130.569 114.478 150.707 102.911C150.864 102.845 151.032 102.811 151.202 102.811C151.373 102.811 151.541 102.845 151.698 102.911C152.018 103.035 152.278 103.277 152.423 103.588C152.931 104.774 164.994 133.137 161.247 156.054C160.335 162.474 157.637 168.507 153.46 173.463C149.283 178.419 143.796 182.097 137.628 184.078L140.046 222.967C140.145 225.579 139.728 228.184 138.819 230.634C137.911 233.084 136.528 235.331 134.751 237.245C130.811 241.069 125.13 243.029 117.78 243.029ZM81.1795 218.829C84.5654 225.022 89.4532 230.263 95.393 234.069C101.333 237.875 108.134 240.124 115.17 240.609C123.123 241.117 129.094 239.399 132.938 235.551C136.028 232.15 137.683 227.684 137.556 223.088L135.138 183.231C135.124 182.944 135.211 182.661 135.383 182.432C135.555 182.202 135.802 182.039 136.081 181.972C142.049 180.32 147.397 176.94 151.453 172.255C155.509 167.571 158.092 161.791 158.878 155.643C162.069 136.041 152.979 111.478 150.707 105.742C132.116 115.422 104.774 106.492 97.2317 103.758C99.6492 127.087 77.8917 143.857 73.927 146.713L81.1795 218.829Z" fill="#3C4242"/>
<path d="M137.725 157.966C135.69 157.95 133.66 157.764 131.657 157.409C131.501 157.377 131.353 157.315 131.222 157.226C131.09 157.137 130.977 157.023 130.89 156.891C130.802 156.758 130.742 156.61 130.711 156.454C130.681 156.298 130.682 156.137 130.714 155.981C130.743 155.824 130.803 155.674 130.891 155.541C130.979 155.407 131.093 155.293 131.226 155.205C131.359 155.117 131.509 155.057 131.666 155.028C131.823 154.999 131.984 155.002 132.14 155.038C132.14 155.038 140.191 156.586 143.986 154.312C144.566 151.166 136.951 140.711 131.391 134.25C131.179 134.006 131.073 133.688 131.096 133.366C131.118 133.043 131.268 132.743 131.512 132.532C131.755 132.32 132.073 132.214 132.395 132.236C132.717 132.259 133.017 132.409 133.228 132.653C135.646 135.411 147.298 149.375 146.476 154.433C146.43 154.824 146.294 155.2 146.081 155.531C145.867 155.863 145.58 156.141 145.243 156.344C142.92 157.528 140.329 158.087 137.725 157.966Z" fill="#3C4242"/>
<path d="M128.925 170.985C127.458 170.988 125.993 170.858 124.549 170.598C117.698 169.381 111.512 165.74 107.119 160.337C106.974 160.055 106.946 159.726 107.041 159.422C107.136 159.119 107.346 158.865 107.627 158.716C107.91 158.568 108.24 158.535 108.546 158.625C108.853 158.716 109.113 158.922 109.271 159.2C113.339 163.965 118.938 167.165 125.105 168.251C133.276 169.582 141.399 166.581 149.28 159.321C149.393 159.2 149.53 159.103 149.682 159.037C149.834 158.971 149.998 158.938 150.164 158.938C150.33 158.938 150.494 158.972 150.646 159.039C150.798 159.105 150.934 159.202 151.047 159.323C151.16 159.444 151.247 159.588 151.302 159.744C151.358 159.901 151.38 160.067 151.369 160.232C151.357 160.398 151.312 160.559 151.235 160.706C151.159 160.853 151.053 160.983 150.924 161.088C143.768 167.67 136.419 170.985 128.925 170.985Z" fill="#3C4242"/>
<path d="M136.177 183.085C136.177 183.085 115.097 187.127 102.671 184.779C102.671 184.779 117.998 215.32 138.208 213.819L136.177 183.085Z" fill="#3C4242"/>
<path d="M136.83 215.126C116.837 215.126 102.26 186.57 101.631 185.312C101.536 185.111 101.497 184.887 101.518 184.666C101.54 184.444 101.62 184.233 101.752 184.053C101.883 183.87 102.065 183.728 102.276 183.647C102.486 183.565 102.716 183.547 102.937 183.594C115.024 185.868 135.79 181.948 136.008 181.9C136.177 181.867 136.351 181.872 136.518 181.914C136.685 181.956 136.841 182.033 136.975 182.142C137.108 182.246 137.218 182.378 137.297 182.528C137.376 182.678 137.423 182.843 137.434 183.013L139.465 213.771C139.478 213.93 139.46 214.09 139.411 214.242C139.362 214.394 139.284 214.535 139.181 214.656C139.077 214.777 138.951 214.877 138.809 214.95C138.667 215.022 138.512 215.066 138.353 215.078L136.83 215.126ZM104.967 186.328C108.739 192.935 121.334 212.706 136.854 212.706L134.993 184.513C130.569 185.312 115.725 187.635 104.967 186.328Z" fill="#3C4242"/>
<path d="M258.189 184.489L310.576 181.924L284.322 293.099L227.994 298.64L258.189 184.489Z" fill="#3C4242"/>
<path d="M228.043 299.85C227.869 299.854 227.697 299.818 227.538 299.747C227.379 299.676 227.238 299.571 227.124 299.439C226.995 299.288 226.904 299.108 226.858 298.914C226.811 298.721 226.812 298.519 226.858 298.326L257.053 184.199C257.116 183.949 257.259 183.726 257.459 183.564C257.66 183.403 257.908 183.311 258.165 183.303L310.528 180.714C310.717 180.698 310.906 180.73 311.079 180.806C311.252 180.882 311.403 181 311.519 181.149C311.642 181.295 311.728 181.467 311.77 181.652C311.812 181.838 311.809 182.03 311.761 182.214L285.531 293.389C285.472 293.634 285.337 293.855 285.147 294.019C284.956 294.184 284.718 294.285 284.468 294.309L228.043 299.85ZM259.18 185.675L229.639 297.261L283.404 291.985L309.078 183.206L259.18 185.675Z" fill="#3C4242"/>
<path d="M190.112 279.45C189.804 279.45 189.507 279.333 189.282 279.121C189.057 278.91 188.922 278.621 188.903 278.312C187.853 262.292 184.313 246.534 178.411 231.606C178.281 231.314 178.271 230.982 178.384 230.683C178.497 230.383 178.724 230.141 179.016 230.009C179.16 229.941 179.316 229.903 179.475 229.896C179.634 229.89 179.793 229.916 179.942 229.972C180.091 230.029 180.227 230.115 180.342 230.225C180.457 230.335 180.549 230.468 180.611 230.614C186.636 245.801 190.25 261.838 191.321 278.143C191.341 278.467 191.233 278.785 191.02 279.029C190.808 279.274 190.508 279.425 190.185 279.45H190.112Z" fill="#3C4242"/>
<path d="M107.917 132.338C107.797 132.361 107.674 132.361 107.554 132.338C107.251 132.243 106.997 132.032 106.848 131.752C106.698 131.471 106.666 131.142 106.756 130.838C107.741 127.717 109.912 125.109 112.8 123.578C114.253 123.01 115.815 122.775 117.37 122.888C118.926 123.001 120.437 123.46 121.793 124.231C122.059 124.382 122.257 124.629 122.349 124.921C122.44 125.213 122.418 125.528 122.286 125.804C122.154 126.08 121.923 126.296 121.639 126.408C121.354 126.521 121.038 126.521 120.754 126.409C119.705 125.802 118.535 125.433 117.328 125.328C116.12 125.224 114.905 125.386 113.767 125.804C111.546 127.009 109.869 129.017 109.077 131.418C109.013 131.679 108.864 131.91 108.654 132.077C108.444 132.243 108.185 132.335 107.917 132.338Z" fill="#3C4242"/>
<path d="M141.399 125.175H141.182C140.866 125.11 140.588 124.925 140.408 124.658C140.227 124.391 140.158 124.064 140.215 123.747C140.405 122.752 140.822 121.815 141.435 121.009C142.047 120.203 142.838 119.55 143.744 119.101C145.872 118.254 148.579 118.931 151.456 121.085C151.686 121.282 151.834 121.558 151.87 121.858C151.906 122.159 151.829 122.462 151.653 122.709C151.477 122.955 151.215 123.126 150.919 123.188C150.623 123.251 150.314 123.199 150.054 123.045C147.806 121.424 145.944 120.843 144.663 121.327C144.132 121.629 143.674 122.043 143.319 122.54C142.964 123.038 142.721 123.606 142.608 124.207C142.547 124.482 142.394 124.728 142.174 124.904C141.955 125.08 141.681 125.176 141.399 125.175Z" fill="#3C4242"/>
<path d="M37.4708 152.884C37.4708 152.884 40.4201 161.741 31.0644 187.393C21.7087 213.045 22.0955 232.695 45.5694 236.229C69.0433 239.762 82.7748 236.93 85.8692 216.869C88.9636 196.807 70.9048 174.785 70.9048 174.785" fill="white"/>
<path d="M60.2192 238.721C55.2536 238.659 50.2998 238.222 45.3999 237.414C36.7936 236.132 30.7015 232.574 27.3412 226.912C22.3611 218.49 23.2073 205.422 29.9279 186.957C38.9452 162.249 36.3584 153.344 36.3343 153.271C36.2835 153.112 36.2645 152.945 36.2783 152.778C36.2921 152.612 36.3385 152.45 36.4148 152.302C36.4911 152.154 36.5959 152.022 36.7231 151.914C36.8503 151.806 36.9975 151.725 37.1562 151.674C37.315 151.623 37.4822 151.604 37.6482 151.618C37.8143 151.632 37.9761 151.678 38.1242 151.754C38.2724 151.831 38.4041 151.936 38.5117 152.063C38.6194 152.19 38.701 152.338 38.7518 152.497C38.7518 152.884 41.7253 162.177 32.3212 187.804C25.8665 205.543 25.0687 217.933 29.5411 225.677C32.563 230.784 37.9057 233.833 45.8834 235.019C68.1969 238.382 81.7349 236.471 84.8051 216.748C87.7787 197.557 70.3001 175.753 70.1067 175.608C70.0044 175.486 69.9275 175.346 69.8805 175.194C69.8336 175.042 69.8175 174.883 69.8333 174.725C69.8491 174.567 69.8964 174.414 69.9724 174.274C70.0485 174.135 70.1517 174.012 70.276 173.914C70.5235 173.713 70.84 173.618 71.1569 173.65C71.4738 173.682 71.7653 173.837 71.9682 174.083C72.7177 175.003 90.3412 196.928 87.1743 217.207C84.5151 233.567 74.7484 238.721 60.2192 238.721Z" fill="#3C4242"/>
<path d="M687.488 1.3192H347.032C343.018 1.31272 339.164 2.89778 336.315 5.72766C333.465 8.55755 331.851 12.402 331.826 16.42V120.214L293.146 167.646L331.826 153.9V445.68C331.826 449.717 333.428 453.588 336.279 456.443C339.131 459.298 342.999 460.901 347.032 460.901H687.488C691.521 460.901 695.389 459.298 698.24 456.443C701.092 453.588 702.694 449.717 702.694 445.68V16.42C702.662 12.4039 701.046 8.56323 698.198 5.73471C695.35 2.90618 691.5 1.31908 687.488 1.3192Z" fill="white"/>
<path d="M687.576 462.111H347.119C342.767 462.105 338.596 460.372 335.519 457.292C332.442 454.211 330.711 450.036 330.704 445.68V155.594L293.644 168.88C293.395 168.971 293.123 168.978 292.869 168.9C292.616 168.821 292.395 168.661 292.242 168.444C292.085 168.235 292 167.98 292 167.718C292 167.457 292.085 167.202 292.242 166.992L330.656 119.875V16.42C330.662 12.0662 332.394 7.89292 335.472 4.81659C338.55 1.74026 342.721 0.0123854 347.071 0.0123901H687.576C691.925 0.0123854 696.096 1.74026 699.174 4.81659C702.252 7.89292 703.984 12.0662 703.99 16.42V445.68C703.984 450.036 702.252 454.211 699.175 457.292C696.099 460.372 691.927 462.105 687.576 462.111ZM331.913 152.69C332.163 152.691 332.407 152.767 332.614 152.908C332.773 153.019 332.903 153.168 332.992 153.341C333.08 153.514 333.125 153.706 333.122 153.9V445.68C333.128 449.394 334.605 452.954 337.228 455.58C339.852 458.207 343.409 459.685 347.119 459.691H687.576C691.286 459.685 694.842 458.207 697.466 455.58C700.09 452.954 701.566 449.394 701.573 445.68V16.42C701.566 12.708 700.089 9.15028 697.465 6.52779C694.84 3.9053 691.284 2.43238 687.576 2.43239H347.119C343.411 2.43238 339.854 3.9053 337.23 6.52779C334.606 9.15028 333.128 12.708 333.122 16.42V120.214C333.118 120.486 333.025 120.75 332.856 120.964L296.908 165.056L331.502 152.763C331.634 152.715 331.773 152.691 331.913 152.69Z" fill="#3C4242"/>
<path d="M290.076 298.64C309.416 271.173 309.416 271.173 308.328 261.711C307.482 254.451 303.855 248.087 300.06 242.085C295.225 234.438 284.66 222.725 280.72 238.334C278.762 245.836 275.74 255.056 277.819 262.752C279.753 269.867 285.071 275.699 287.997 282.378" fill="white"/>
<path d="M290.076 299.85C289.825 299.849 289.581 299.773 289.374 299.633C289.116 299.443 288.941 299.161 288.886 298.844C288.832 298.528 288.903 298.203 289.084 297.939C308.183 270.859 308.183 270.859 307.119 261.856C306.297 254.596 302.501 248.208 299.02 242.738C295.539 237.269 290.027 231.389 286.449 231.921C284.032 232.308 282.533 235.793 281.783 238.649L281.082 241.262C279.245 248.135 277.118 255.927 278.907 262.437C280.235 266.504 282.14 270.359 284.564 273.884C286.225 276.45 287.711 279.126 289.012 281.894C289.14 282.189 289.146 282.523 289.028 282.823C288.91 283.122 288.678 283.363 288.383 283.491C288.088 283.62 287.755 283.625 287.455 283.507C287.156 283.389 286.916 283.157 286.788 282.862C285.528 280.195 284.091 277.616 282.485 275.142C279.936 271.417 277.941 267.341 276.562 263.042C274.628 255.903 276.828 247.772 278.762 240.609L279.463 238.019C280.792 232.841 283.016 229.985 286.062 229.501C292.372 228.509 299.141 238.358 301.075 241.407C304.701 247.119 308.618 253.846 309.536 261.542C310.697 271.464 310.697 271.464 291.067 299.318C290.958 299.482 290.811 299.617 290.638 299.709C290.465 299.802 290.272 299.851 290.076 299.85Z" fill="#3C4242"/>
<path d="M52.6289 335.86C52.6289 335.86 139.417 416.156 164.221 406.984C189.024 397.812 217.913 359.528 234.933 332.835C251.952 306.142 273.999 269.262 277.239 252.83C280.478 236.398 275.402 224.129 269.261 227.202C263.121 230.275 240.13 252.806 240.13 252.806C240.13 252.806 247.89 230.784 244.264 230.687C240.638 230.59 229.953 240.367 226.399 271.827L152.665 346.847L92.2276 287.847" fill="white"/>
<path d="M159.821 408.871C130.158 408.871 55.1671 339.829 51.8068 336.731C51.6935 336.619 51.6035 336.485 51.5422 336.337C51.4808 336.19 51.4492 336.032 51.4492 335.872C51.4492 335.712 51.4808 335.554 51.5422 335.407C51.6035 335.259 51.6935 335.125 51.8068 335.013C52.0368 334.79 52.3446 334.665 52.665 334.665C52.9854 334.665 53.2932 334.79 53.5232 335.013C53.7408 335.231 75.4741 355.293 99.9392 373.951C132.044 398.441 154.14 409.501 163.882 405.895C191.998 395.513 224.658 346.895 233.99 332.23C251.468 304.811 272.96 268.729 276.127 252.66C278.544 240.923 276.32 231.219 272.911 228.63C272.502 228.272 271.991 228.049 271.45 227.993C270.909 227.936 270.364 228.049 269.889 228.315C263.967 231.268 241.266 253.532 241.024 253.749C240.834 253.942 240.583 254.062 240.313 254.088C240.044 254.115 239.774 254.046 239.55 253.895C239.317 253.754 239.14 253.538 239.048 253.283C238.955 253.027 238.953 252.748 239.042 252.491C242.016 244.045 244.627 234.075 244.022 231.994C241.605 232.502 231.234 240.343 227.656 271.899C227.613 272.168 227.496 272.42 227.317 272.625L153.584 347.645C153.473 347.758 153.342 347.848 153.196 347.909C153.051 347.97 152.895 348.001 152.737 348.001C152.58 348.001 152.424 347.97 152.278 347.909C152.133 347.848 152.002 347.758 151.891 347.645L91.4538 288.646C91.2229 288.421 91.0907 288.114 91.0862 287.792C91.0817 287.469 91.2052 287.159 91.4296 286.928C91.654 286.697 91.9609 286.564 92.2828 286.56C92.6047 286.555 92.9152 286.679 93.146 286.903L152.834 344.983L225.359 271.101C229.01 239.81 239.864 229.428 244.336 229.428C244.651 229.427 244.961 229.506 245.236 229.659C245.511 229.811 245.742 230.032 245.908 230.3C247.528 232.72 245.062 241.77 242.91 248.425C249.679 241.916 263.991 228.436 268.802 226.04C269.683 225.573 270.681 225.375 271.673 225.469C272.666 225.564 273.609 225.947 274.386 226.573C279.076 230.179 280.817 241.286 278.496 252.999C275.256 269.455 253.62 305.804 236.02 333.416C223.933 352.413 192.747 397.691 164.704 408.049C163.139 408.616 161.485 408.895 159.821 408.871Z" fill="#3C4242"/>
<path d="M517.248 204.962C504.859 204.962 492.749 201.285 482.448 194.395C472.148 187.505 464.119 177.712 459.378 166.255C454.637 154.798 453.397 142.19 455.814 130.027C458.231 117.864 464.196 106.692 472.956 97.9229C481.716 89.1538 492.877 83.182 505.028 80.7626C517.178 78.3432 529.773 79.5849 541.218 84.3307C552.664 89.0765 562.446 97.1132 569.329 107.425C576.212 117.736 579.885 129.859 579.885 142.26C579.866 158.884 573.261 174.821 561.518 186.576C549.775 198.331 533.854 204.943 517.248 204.962ZM517.248 82.002C505.336 82.002 493.693 85.5381 483.789 92.1631C473.885 98.788 466.167 108.204 461.61 119.221C457.052 130.237 455.861 142.359 458.187 154.054C460.512 165.748 466.25 176.489 474.674 184.919C483.099 193.348 493.831 199.088 505.514 201.411C517.197 203.734 529.306 202.537 540.31 197.971C551.313 193.404 560.716 185.674 567.331 175.758C573.945 165.841 577.473 154.184 577.468 142.26C577.442 126.282 571.089 110.967 559.8 99.6709C548.511 88.3752 533.209 82.0212 517.248 82.002Z" fill="#D1D3D4"/>
<path d="M561.246 126.457C560.818 127.15 560.333 127.806 559.796 128.418L508.255 179.939C507.99 180.339 507.631 180.666 507.209 180.893C506.787 181.12 506.316 181.238 505.837 181.238C505.358 181.238 504.887 181.12 504.465 180.893C504.044 180.666 503.684 180.339 503.42 179.939C493.75 169.969 484.08 159.982 474.41 149.98C474.045 149.706 473.751 149.347 473.555 148.935C473.358 148.523 473.265 148.069 473.281 147.612C473.298 147.156 473.424 146.71 473.65 146.313C473.876 145.917 474.195 145.58 474.579 145.333L481.831 138.775C482.092 138.448 482.423 138.183 482.799 138.001C483.176 137.819 483.589 137.725 484.007 137.725C484.425 137.725 484.838 137.819 485.215 138.001C485.592 138.183 485.922 138.448 486.183 138.775L503.323 156.248C505.112 158.063 506.441 158.087 508.158 156.248L548.192 116.342C548.452 115.937 548.81 115.605 549.233 115.374C549.655 115.144 550.128 115.023 550.609 115.023C551.09 115.023 551.563 115.144 551.986 115.374C552.408 115.605 552.766 115.937 553.027 116.342C555.299 118.617 557.572 120.891 559.796 123.19C560.309 123.793 560.778 124.432 561.198 125.102L561.246 126.457Z" fill="#8A33FD"/>
<path d="M112.945 148.649C109.734 148.667 106.584 147.769 103.864 146.062C101.143 144.354 98.9636 141.907 97.5803 139.006C96.197 136.105 95.6668 132.87 96.0516 129.679C96.4365 126.488 97.7204 123.472 99.7535 120.984C101.787 118.496 104.485 116.638 107.533 115.628C110.582 114.617 113.855 114.496 116.969 115.278C120.084 116.06 122.912 117.713 125.123 120.044C127.335 122.375 128.838 125.288 129.457 128.442C130.323 132.813 129.433 137.35 126.98 141.069C124.527 144.787 120.71 147.389 116.354 148.31C115.231 148.531 114.09 148.644 112.945 148.649ZM112.945 117.407C111.979 117.396 111.014 117.494 110.069 117.697C107.239 118.241 104.635 119.617 102.59 121.648C100.544 123.68 99.1494 126.275 98.5833 129.103C98.0171 131.931 98.3053 134.864 99.411 137.528C100.517 140.192 102.39 142.465 104.792 144.059C107.193 145.652 110.015 146.494 112.896 146.476C115.777 146.458 118.588 145.581 120.97 143.958C123.351 142.334 125.196 140.037 126.269 137.36C127.341 134.683 127.592 131.747 126.991 128.926C126.31 125.696 124.55 122.796 122.001 120.702C119.452 118.608 116.267 117.445 112.97 117.407H112.945Z" fill="#3C4242"/>
<path d="M148.603 141.34C145.58 141.304 142.623 140.457 140.037 138.889C137.452 137.32 135.334 135.088 133.903 132.422C132.471 129.757 131.78 126.756 131.899 123.733C132.018 120.709 132.945 117.773 134.582 115.229C136.433 112.464 139.058 110.307 142.127 109.027C145.196 107.747 148.574 107.4 151.839 108.03C155.104 108.66 158.111 110.239 160.485 112.569C162.859 114.899 164.494 117.878 165.187 121.133C166.053 125.505 165.163 130.041 162.71 133.76C160.258 137.479 156.44 140.081 152.084 141.002C150.938 141.227 149.772 141.34 148.603 141.34ZM148.603 110.098C147.629 110.099 146.657 110.196 145.702 110.389C142.872 110.933 140.269 112.308 138.223 114.34C136.178 116.371 134.783 118.967 134.217 121.795C133.651 124.623 133.939 127.556 135.044 130.22C136.15 132.883 138.023 135.157 140.425 136.75C142.827 138.344 145.648 139.186 148.529 139.167C151.411 139.149 154.222 138.273 156.603 136.649C158.985 135.026 160.83 132.729 161.902 130.052C162.974 127.375 163.226 124.438 162.625 121.617C161.944 118.392 160.188 115.494 157.644 113.401C155.1 111.307 151.92 110.142 148.627 110.098H148.603Z" fill="#3C4242"/>
<path d="M127.982 128.466C127.761 128.471 127.543 128.412 127.353 128.297C127.217 128.217 127.098 128.111 127.003 127.984C126.909 127.858 126.84 127.714 126.802 127.56C126.764 127.407 126.756 127.248 126.781 127.091C126.805 126.935 126.86 126.786 126.943 126.651C127.282 126.107 127.727 125.637 128.25 125.266C128.773 124.896 129.364 124.633 129.989 124.494C130.615 124.354 131.261 124.34 131.892 124.453C132.523 124.566 133.125 124.803 133.663 125.151C133.907 125.318 134.082 125.569 134.153 125.856C134.225 126.144 134.189 126.447 134.052 126.71C133.915 126.972 133.686 127.175 133.41 127.28C133.133 127.385 132.828 127.385 132.551 127.28C130.134 126.046 129.118 127.692 129.022 127.885C128.913 128.064 128.76 128.211 128.578 128.313C128.396 128.414 128.191 128.467 127.982 128.466Z" fill="#3C4242"/>
<path d="M97.0625 131.854L68.0283 135.387L97.0625 131.854Z" fill="white"/>
<path d="M68.0286 136.597C67.708 136.616 67.3929 136.507 67.1526 136.294C66.9123 136.081 66.7665 135.781 66.7473 135.46C66.7281 135.139 66.837 134.823 67.0501 134.583C67.2631 134.342 67.5629 134.196 67.8835 134.177L96.8935 130.62C97.0511 130.6 97.2111 130.611 97.3641 130.654C97.517 130.697 97.6598 130.771 97.7838 130.87C97.9079 130.969 98.0107 131.093 98.0862 131.233C98.1616 131.373 98.2082 131.526 98.2232 131.685C98.2643 132.002 98.178 132.323 97.9832 132.577C97.7883 132.831 97.5008 132.998 97.1836 133.04L68.1736 136.573L68.0286 136.597Z" fill="#3C4242"/>
<path d="M70.1794 145.938C70.1794 145.938 60.2676 112.421 73.5397 89.6008C84.5393 70.6764 113.477 57.5842 134.775 56.8824C129.649 52.6323 123.416 49.9389 116.811 49.1199C110.205 48.3009 103.504 49.3905 97.4971 52.2602C75.4012 61.9402 63.6521 72.8544 59.2765 92.6984C53.0393 121.4 70.1794 145.938 70.1794 145.938Z" fill="#3C4242"/>
<path d="M70.1796 147.1C69.9865 147.097 69.7966 147.05 69.6247 146.962C69.4528 146.874 69.3035 146.747 69.1884 146.592C69.0192 146.326 51.8066 121.279 58.1163 92.408C62.3227 73.048 73.2498 61.4804 97.038 51.0986C103.283 48.1611 110.231 47.0565 117.078 47.9132C123.924 48.7699 130.388 51.5527 135.718 55.9386C135.887 56.1054 136.004 56.3174 136.055 56.5492C136.107 56.781 136.09 57.0227 136.008 57.2454C135.928 57.4709 135.781 57.6663 135.587 57.8049C135.392 57.9435 135.159 58.0185 134.92 58.0198C114.42 58.77 85.6274 71.233 74.5794 90.23C61.7183 112.325 71.2433 145.261 71.34 145.6C71.4204 145.874 71.4013 146.167 71.2863 146.428C71.1713 146.69 70.9677 146.902 70.7114 147.027C70.5403 147.085 70.3599 147.11 70.1796 147.1ZM112.897 50.058C107.76 50.0951 102.687 51.2079 98.005 53.325C75.0146 63.3922 64.4985 74.5 60.4612 92.9646C56.424 111.429 62.6128 128.902 67.1577 138.122C65.0303 126.627 62.9996 105.331 72.5004 88.9958C83.3791 70.2892 110.794 57.681 131.536 55.866C126.039 52.1207 119.546 50.1141 112.897 50.1064V50.058Z" fill="#3C4242"/>
<path d="M85.9904 140.034C85.9904 140.034 71.9206 113.22 59.1803 131.467C46.4401 149.714 67.8591 167.622 80.0433 165.202" fill="white"/>
<path d="M77.6494 166.654C70.6628 166.654 62.3466 161.814 57.6808 154.554C55.2257 151.041 53.9514 146.838 54.0427 142.552C54.1339 138.266 55.586 134.121 58.1885 130.717C61.5488 125.877 65.441 123.457 69.5266 123.82C79.1966 124.425 86.7392 138.775 87.0776 139.38C87.2221 139.67 87.2473 140.004 87.1478 140.312C87.0484 140.62 86.8322 140.876 86.5458 141.026C86.2633 141.171 85.9349 141.199 85.6318 141.104C85.3287 141.009 85.0752 140.798 84.9261 140.518C84.9261 140.372 77.6736 126.748 69.3815 126.24C66.1421 126.022 63.0235 128.006 60.1709 132.096C57.8673 135.118 56.5796 138.793 56.4927 142.593C56.4059 146.393 57.5243 150.123 59.6874 153.247C64.3773 160.507 73.3946 165.202 79.801 163.943C80.1179 163.886 80.4446 163.955 80.7111 164.136C80.9776 164.317 81.1629 164.595 81.2273 164.911C81.2838 165.226 81.2139 165.55 81.0327 165.812C80.8516 166.075 80.5739 166.256 80.2603 166.315C79.4034 166.514 78.5288 166.628 77.6494 166.654Z" fill="#3C4242"/>
<path d="M86.2315 283.588C86.0642 283.586 85.8989 283.551 85.7453 283.485C85.5917 283.418 85.4529 283.322 85.3371 283.201C85.047 282.862 55.3842 250.676 35.0289 242.884C34.8639 242.842 34.7095 242.766 34.576 242.66C34.4424 242.555 34.3326 242.422 34.2537 242.271C34.1749 242.12 34.1288 241.954 34.1185 241.784C34.1081 241.614 34.1337 241.444 34.1937 241.284C34.2536 241.125 34.3465 240.98 34.4663 240.859C34.5861 240.738 34.73 240.643 34.8887 240.582C35.0475 240.52 35.2174 240.493 35.3873 240.502C35.5573 240.511 35.7235 240.555 35.875 240.633C56.7864 248.74 85.8931 280.2 87.126 281.555C87.349 281.785 87.4737 282.094 87.4737 282.414C87.4737 282.735 87.349 283.043 87.126 283.273C87.0058 283.383 86.8646 283.468 86.7109 283.522C86.5572 283.576 86.3941 283.599 86.2315 283.588Z" fill="#3C4242"/>
<path d="M445.98 106.928C445.73 106.927 445.486 106.851 445.279 106.71L418.686 88.3182C418.428 88.129 418.253 87.8463 418.198 87.5301C418.144 87.2138 418.215 86.8889 418.396 86.6242C418.486 86.4941 418.6 86.3832 418.733 86.298C418.866 86.2128 419.014 86.155 419.169 86.1279C419.325 86.1009 419.484 86.1052 419.638 86.1405C419.791 86.1759 419.936 86.2416 420.064 86.3338L446.657 104.726C446.789 104.813 446.902 104.926 446.989 105.058C447.077 105.19 447.137 105.339 447.166 105.494C447.195 105.65 447.193 105.81 447.16 105.965C447.126 106.119 447.062 106.266 446.971 106.396C446.861 106.558 446.714 106.692 446.541 106.784C446.369 106.877 446.176 106.926 445.98 106.928Z" fill="#D1D3D4"/>
<path d="M419.436 198.428C419.242 198.433 419.049 198.39 418.876 198.301C418.703 198.212 418.555 198.081 418.445 197.92C418.264 197.655 418.193 197.33 418.247 197.014C418.301 196.698 418.476 196.415 418.735 196.226L445.328 177.834C445.459 177.742 445.607 177.678 445.764 177.644C445.92 177.61 446.082 177.608 446.24 177.637C446.397 177.666 446.547 177.727 446.681 177.814C446.815 177.902 446.93 178.016 447.02 178.149C447.111 178.278 447.175 178.425 447.209 178.579C447.242 178.734 447.244 178.894 447.215 179.05C447.186 179.206 447.125 179.354 447.038 179.486C446.951 179.618 446.838 179.731 446.706 179.818L420.113 198.21C419.917 198.354 419.679 198.43 419.436 198.428Z" fill="#D1D3D4"/>
<path d="M443.2 143.47H419.484C419.164 143.47 418.856 143.343 418.629 143.116C418.403 142.889 418.275 142.581 418.275 142.26C418.275 141.939 418.403 141.631 418.629 141.404C418.856 141.177 419.164 141.05 419.484 141.05H443.2C443.52 141.05 443.828 141.177 444.055 141.404C444.281 141.631 444.409 141.939 444.409 142.26C444.409 142.581 444.281 142.889 444.055 143.116C443.828 143.343 443.52 143.47 443.2 143.47Z" fill="#D1D3D4"/>
<path d="M590.957 106.928C590.762 106.926 590.569 106.877 590.396 106.784C590.224 106.692 590.076 106.558 589.966 106.396C589.875 106.266 589.811 106.119 589.778 105.965C589.744 105.81 589.742 105.65 589.771 105.494C589.801 105.339 589.861 105.19 589.948 105.058C590.036 104.926 590.149 104.813 590.281 104.726L616.873 86.3338C617.001 86.2416 617.146 86.1759 617.3 86.1405C617.454 86.1052 617.613 86.1009 617.768 86.1279C617.923 86.155 618.072 86.2128 618.205 86.298C618.337 86.3832 618.452 86.4941 618.541 86.6242C618.634 86.7543 618.7 86.9014 618.736 87.0572C618.771 87.2129 618.776 87.3742 618.749 87.5317C618.722 87.6892 618.664 87.8398 618.578 87.9748C618.493 88.1098 618.382 88.2265 618.251 88.3182L591.659 106.71C591.452 106.851 591.208 106.927 590.957 106.928Z" fill="#D1D3D4"/>
<path d="M617.502 198.428C617.26 198.427 617.023 198.351 616.825 198.21L590.233 179.818C590.101 179.731 589.988 179.618 589.9 179.486C589.813 179.354 589.753 179.206 589.724 179.05C589.694 178.894 589.696 178.734 589.73 178.579C589.763 178.425 589.828 178.278 589.918 178.149C590.008 178.016 590.123 177.902 590.257 177.814C590.391 177.727 590.541 177.666 590.699 177.637C590.856 177.608 591.018 177.61 591.175 177.644C591.331 177.678 591.479 177.742 591.611 177.834L618.203 196.226C618.334 196.318 618.445 196.434 618.531 196.569C618.616 196.704 618.674 196.855 618.701 197.012C618.728 197.17 618.723 197.331 618.688 197.487C618.652 197.643 618.586 197.79 618.493 197.92C618.384 198.081 618.236 198.212 618.063 198.301C617.889 198.39 617.697 198.433 617.502 198.428Z" fill="#D1D3D4"/>
<path d="M617.502 143.47H593.786C593.465 143.47 593.158 143.343 592.931 143.116C592.704 142.889 592.577 142.581 592.577 142.26C592.577 141.939 592.704 141.631 592.931 141.404C593.158 141.177 593.465 141.05 593.786 141.05H617.502C617.822 141.05 618.13 141.177 618.356 141.404C618.583 141.631 618.71 141.939 618.71 142.26C618.71 142.581 618.583 142.889 618.356 143.116C618.13 143.343 617.822 143.47 617.502 143.47Z" fill="#D1D3D4"/>
<path d="M428.129 263L432.809 271.49L437.489 263H442.079L434.939 275.54V284H430.679V275.54L423.539 263H428.129ZM443.486 282.005C441.836 280.435 441.011 278.51 441.011 276.23C441.011 273.95 441.836 272.025 443.486 270.455C445.136 268.885 447.186 268.1 449.636 268.1C451.256 268.1 452.726 268.46 454.046 269.18C455.366 269.9 456.396 270.88 457.136 272.12C457.886 273.36 458.261 274.73 458.261 276.23C458.261 277.73 457.886 279.1 457.136 280.34C456.396 281.58 455.366 282.56 454.046 283.28C452.726 284 451.256 284.36 449.636 284.36C447.186 284.36 445.136 283.575 443.486 282.005ZM445.151 276.23C445.151 277.5 445.581 278.565 446.441 279.425C447.301 280.285 448.366 280.715 449.636 280.715C450.906 280.715 451.971 280.285 452.831 279.425C453.701 278.565 454.136 277.5 454.136 276.23C454.136 274.97 453.701 273.91 452.831 273.05C451.971 272.18 450.906 271.745 449.636 271.745C448.366 271.745 447.301 272.18 446.441 273.05C445.581 273.91 445.151 274.97 445.151 276.23ZM471.496 278.57V268.46H475.621V284H471.496V282.29C470.966 282.92 470.311 283.425 469.531 283.805C468.761 284.175 467.961 284.36 467.131 284.36C465.301 284.36 463.806 283.775 462.646 282.605C461.496 281.435 460.921 279.91 460.921 278.03V268.46H465.046V277.625C465.046 278.505 465.326 279.24 465.886 279.83C466.456 280.42 467.206 280.715 468.136 280.715C468.766 280.715 469.391 280.505 470.011 280.085C470.631 279.665 471.126 279.16 471.496 278.57ZM487.374 271.745C486.634 271.745 485.949 271.97 485.319 272.42C484.689 272.87 484.164 273.485 483.744 274.265V284H479.619V268.46H483.744V270.365C484.874 268.855 486.259 268.1 487.899 268.1C488.429 268.1 488.899 268.21 489.309 268.43L489.024 272.045C488.444 271.845 487.894 271.745 487.374 271.745ZM506.51 268.415C505.17 269.785 504.5 271.48 504.5 273.5C504.5 275.52 505.17 277.215 506.51 278.585C507.85 279.955 509.5 280.64 511.46 280.64C513.42 280.64 515.07 279.955 516.41 278.585C517.75 277.215 518.42 275.52 518.42 273.5C518.42 271.48 517.75 269.785 516.41 268.415C515.07 267.045 513.42 266.36 511.46 266.36C509.5 266.36 507.85 267.045 506.51 268.415ZM501.665 279.005C500.685 277.345 500.195 275.51 500.195 273.5C500.195 271.49 500.685 269.655 501.665 267.995C502.655 266.335 504.01 265.03 505.73 264.08C507.46 263.12 509.37 262.64 511.46 262.64C513.55 262.64 515.455 263.12 517.175 264.08C518.905 265.03 520.26 266.335 521.24 267.995C522.23 269.655 522.725 271.49 522.725 273.5C522.725 275.51 522.23 277.345 521.24 279.005C520.26 280.665 518.905 281.975 517.175 282.935C515.455 283.885 513.55 284.36 511.46 284.36C509.37 284.36 507.46 283.885 505.73 282.935C504.01 281.975 502.655 280.665 501.665 279.005ZM533.634 271.745C532.894 271.745 532.209 271.97 531.579 272.42C530.949 272.87 530.424 273.485 530.004 274.265V284H525.879V268.46H530.004V270.365C531.134 268.855 532.519 268.1 534.159 268.1C534.689 268.1 535.159 268.21 535.569 268.43L535.284 272.045C534.704 271.845 534.154 271.745 533.634 271.745ZM545.378 280.715C546.268 280.715 547.073 280.49 547.793 280.04C548.523 279.59 549.068 278.99 549.428 278.24V274.22C549.068 273.47 548.523 272.87 547.793 272.42C547.073 271.97 546.268 271.745 545.378 271.745C544.108 271.745 543.043 272.175 542.183 273.035C541.323 273.895 540.893 274.96 540.893 276.23C540.893 277.5 541.323 278.565 542.183 279.425C543.043 280.285 544.108 280.715 545.378 280.715ZM544.508 268.1C546.478 268.1 548.118 268.74 549.428 270.02V262.1H553.508V284H549.428V282.44C548.118 283.72 546.478 284.36 544.508 284.36C543.048 284.36 541.723 283.995 540.533 283.265C539.343 282.525 538.413 281.535 537.743 280.295C537.083 279.055 536.753 277.7 536.753 276.23C536.753 274.76 537.083 273.405 537.743 272.165C538.413 270.925 539.343 269.94 540.533 269.21C541.723 268.47 543.048 268.1 544.508 268.1ZM560.64 277.46C560.82 278.54 561.32 279.415 562.14 280.085C562.97 280.745 563.97 281.075 565.14 281.075C566.77 281.075 568.24 280.43 569.55 279.14L572.025 281.54C570.295 283.42 568.005 284.36 565.155 284.36C563.895 284.36 562.72 284.15 561.63 283.73C560.54 283.31 559.62 282.735 558.87 282.005C558.12 281.275 557.53 280.415 557.1 279.425C556.68 278.425 556.47 277.36 556.47 276.23C556.47 275.11 556.685 274.05 557.115 273.05C557.545 272.05 558.13 271.19 558.87 270.47C559.62 269.74 560.52 269.165 561.57 268.745C562.62 268.315 563.735 268.1 564.915 268.1C566.465 268.1 567.865 268.455 569.115 269.165C570.365 269.865 571.335 270.815 572.025 272.015C572.715 273.205 573.06 274.52 573.06 275.96C573.06 276.48 573 276.98 572.88 277.46H560.64ZM564.885 271.385C563.915 271.385 563.05 271.67 562.29 272.24C561.54 272.81 561.025 273.57 560.745 274.52H568.815C568.585 273.58 568.12 272.825 567.42 272.255C566.72 271.675 565.875 271.385 564.885 271.385ZM583.79 271.745C583.05 271.745 582.365 271.97 581.735 272.42C581.105 272.87 580.58 273.485 580.16 274.265V284H576.035V268.46H580.16V270.365C581.29 268.855 582.675 268.1 584.315 268.1C584.845 268.1 585.315 268.21 585.725 268.43L585.44 272.045C584.86 271.845 584.31 271.745 583.79 271.745ZM597.526 284V268.46H601.651V284H597.526ZM597.856 266.015C597.386 265.555 597.151 264.99 597.151 264.32C597.151 263.65 597.386 263.085 597.856 262.625C598.326 262.165 598.906 261.935 599.596 261.935C600.286 261.935 600.866 262.165 601.336 262.625C601.806 263.085 602.041 263.65 602.041 264.32C602.041 264.99 601.806 265.555 601.336 266.015C600.866 266.475 600.286 266.705 599.596 266.705C598.906 266.705 598.326 266.475 597.856 266.015ZM604.677 281.78L606.747 279.215C607.247 279.785 607.837 280.235 608.517 280.565C609.207 280.895 609.932 281.06 610.692 281.06C611.402 281.06 611.957 280.92 612.357 280.64C612.767 280.36 612.972 279.985 612.972 279.515C612.972 279.035 612.772 278.65 612.372 278.36C611.972 278.06 611.282 277.81 610.302 277.61C606.932 276.92 605.247 275.26 605.247 272.63C605.247 271.31 605.762 270.225 606.792 269.375C607.832 268.525 609.187 268.1 610.857 268.1C611.897 268.1 612.897 268.295 613.857 268.685C614.817 269.065 615.657 269.575 616.377 270.215L614.397 272.795C613.267 271.865 612.207 271.4 611.217 271.4C610.647 271.4 610.182 271.52 609.822 271.76C609.462 271.99 609.282 272.3 609.282 272.69C609.282 273.59 610.107 274.21 611.757 274.55C613.547 274.91 614.867 275.505 615.717 276.335C616.577 277.165 617.007 278.24 617.007 279.56C617.007 280.96 616.462 282.11 615.372 283.01C614.282 283.91 612.827 284.36 611.007 284.36C609.717 284.36 608.517 284.135 607.407 283.685C606.297 283.225 605.387 282.59 604.677 281.78ZM454.815 317.36C452.725 317.36 450.815 316.885 449.085 315.935C447.365 314.975 446.01 313.665 445.02 312.005C444.04 310.345 443.55 308.51 443.55 306.5C443.55 304.49 444.04 302.655 445.02 300.995C446.01 299.335 447.365 298.03 449.085 297.08C450.815 296.12 452.725 295.64 454.815 295.64C457.525 295.64 459.925 296.45 462.015 298.07L459.87 301.235C459.03 300.635 458.21 300.175 457.41 299.855C456.62 299.525 455.755 299.36 454.815 299.36C452.855 299.36 451.205 300.045 449.865 301.415C448.525 302.785 447.855 304.48 447.855 306.5C447.855 308.52 448.525 310.215 449.865 311.585C451.205 312.955 452.855 313.64 454.815 313.64C455.755 313.64 456.675 313.455 457.575 313.085C458.475 312.715 459.29 312.225 460.02 311.615L462.27 314.75C460.17 316.49 457.685 317.36 454.815 317.36ZM466.118 315.005C464.468 313.435 463.643 311.51 463.643 309.23C463.643 306.95 464.468 305.025 466.118 303.455C467.768 301.885 469.818 301.1 472.268 301.1C473.888 301.1 475.358 301.46 476.678 302.18C477.998 302.9 479.028 303.88 479.768 305.12C480.518 306.36 480.893 307.73 480.893 309.23C480.893 310.73 480.518 312.1 479.768 313.34C479.028 314.58 477.998 315.56 476.678 316.28C475.358 317 473.888 317.36 472.268 317.36C469.818 317.36 467.768 316.575 466.118 315.005ZM467.783 309.23C467.783 310.5 468.213 311.565 469.073 312.425C469.933 313.285 470.998 313.715 472.268 313.715C473.538 313.715 474.603 313.285 475.463 312.425C476.333 311.565 476.768 310.5 476.768 309.23C476.768 307.97 476.333 306.91 475.463 306.05C474.603 305.18 473.538 304.745 472.268 304.745C470.998 304.745 469.933 305.18 469.073 306.05C468.213 306.91 467.783 307.97 467.783 309.23ZM487.977 306.89V317H483.852V301.46H487.977V303.17C488.507 302.54 489.157 302.04 489.927 301.67C490.707 301.29 491.512 301.1 492.342 301.1C494.172 301.1 495.662 301.685 496.812 302.855C497.972 304.025 498.552 305.55 498.552 307.43V317H494.427V307.835C494.427 306.955 494.142 306.22 493.572 305.63C493.012 305.04 492.267 304.745 491.337 304.745C490.707 304.745 490.082 304.955 489.462 305.375C488.842 305.795 488.347 306.3 487.977 306.89ZM502.933 301.46V300.575C502.933 296.925 504.978 295.1 509.068 295.1C509.678 295.1 510.313 295.15 510.973 295.25V298.535C510.473 298.485 509.973 298.46 509.473 298.46C508.613 298.46 507.993 298.635 507.613 298.985C507.243 299.335 507.058 299.88 507.058 300.62V301.46H517.648V317H513.523V305.045H507.058V317H502.933V305.045H500.608V301.46H502.933ZM513.853 299.015C513.383 298.555 513.148 297.99 513.148 297.32C513.148 296.65 513.383 296.085 513.853 295.625C514.323 295.165 514.903 294.935 515.593 294.935C516.283 294.935 516.863 295.165 517.333 295.625C517.803 296.085 518.038 296.65 518.038 297.32C518.038 297.99 517.803 298.555 517.333 299.015C516.863 299.475 516.283 299.705 515.593 299.705C514.903 299.705 514.323 299.475 513.853 299.015ZM529.488 304.745C528.748 304.745 528.063 304.97 527.433 305.42C526.803 305.87 526.278 306.485 525.858 307.265V317H521.733V301.46H525.858V303.365C526.988 301.855 528.373 301.1 530.013 301.1C530.543 301.1 531.013 301.21 531.423 301.43L531.138 305.045C530.558 304.845 530.008 304.745 529.488 304.745ZM534.097 301.46H538.222V303.17C538.722 302.55 539.337 302.055 540.067 301.685C540.797 301.315 541.577 301.13 542.407 301.13C543.497 301.13 544.477 301.365 545.347 301.835C546.227 302.305 546.932 302.96 547.462 303.8C548.022 302.99 548.762 302.34 549.682 301.85C550.602 301.35 551.572 301.1 552.592 301.1C554.382 301.1 555.837 301.69 556.957 302.87C558.087 304.04 558.652 305.545 558.652 307.385V317H554.527V307.805C554.527 306.935 554.267 306.21 553.747 305.63C553.237 305.04 552.557 304.745 551.707 304.745C551.077 304.745 550.472 304.955 549.892 305.375C549.312 305.785 548.817 306.32 548.407 306.98C548.427 307.42 548.437 307.76 548.437 308V317H544.312V307.805C544.312 306.915 544.052 306.185 543.532 305.615C543.012 305.035 542.332 304.745 541.492 304.745C540.862 304.745 540.257 304.95 539.677 305.36C539.107 305.77 538.622 306.295 538.222 306.935V317H534.097V301.46ZM565.489 310.46C565.669 311.54 566.169 312.415 566.989 313.085C567.819 313.745 568.819 314.075 569.989 314.075C571.619 314.075 573.089 313.43 574.399 312.14L576.874 314.54C575.144 316.42 572.854 317.36 570.004 317.36C568.744 317.36 567.569 317.15 566.479 316.73C565.389 316.31 564.469 315.735 563.719 315.005C562.969 314.275 562.379 313.415 561.949 312.425C561.529 311.425 561.319 310.36 561.319 309.23C561.319 308.11 561.534 307.05 561.964 306.05C562.394 305.05 562.979 304.19 563.719 303.47C564.469 302.74 565.369 302.165 566.419 301.745C567.469 301.315 568.584 301.1 569.764 301.1C571.314 301.1 572.714 301.455 573.964 302.165C575.214 302.865 576.184 303.815 576.874 305.015C577.564 306.205 577.909 307.52 577.909 308.96C577.909 309.48 577.849 309.98 577.729 310.46H565.489ZM569.734 304.385C568.764 304.385 567.899 304.67 567.139 305.24C566.389 305.81 565.874 306.57 565.594 307.52H573.664C573.434 306.58 572.969 305.825 572.269 305.255C571.569 304.675 570.724 304.385 569.734 304.385ZM588.489 313.715C589.379 313.715 590.184 313.49 590.904 313.04C591.634 312.59 592.179 311.99 592.539 311.24V307.22C592.179 306.47 591.634 305.87 590.904 305.42C590.184 304.97 589.379 304.745 588.489 304.745C587.219 304.745 586.154 305.175 585.294 306.035C584.434 306.895 584.004 307.96 584.004 309.23C584.004 310.5 584.434 311.565 585.294 312.425C586.154 313.285 587.219 313.715 588.489 313.715ZM587.619 301.1C589.589 301.1 591.229 301.74 592.539 303.02V295.1H596.619V317H592.539V315.44C591.229 316.72 589.589 317.36 587.619 317.36C586.159 317.36 584.834 316.995 583.644 316.265C582.454 315.525 581.524 314.535 580.854 313.295C580.194 312.055 579.864 310.7 579.864 309.23C579.864 307.76 580.194 306.405 580.854 305.165C581.524 303.925 582.454 302.94 583.644 302.21C584.834 301.47 586.159 301.1 587.619 301.1Z" fill="#3C4242"/>
</svg>
